<?xml version="1.0" encoding="utf-8"?>
<!-- Generator: Adobe Illustrator 22.1.0, SVG Export Plug-In . SVG Version: 6.00 Build 0)  -->
<svg version="1.1" id="Layer_2" xmlns="http://www.w3.org/2000/svg" xmlns:xlink="http://www.w3.org/1999/xlink" x="0px" y="0px"
	 viewBox="0 0 175.6 59" style="enable-background:new 0 0 175.6 59;" xml:space="preserve">
<g>
	<g>
		<path d="M19.7,10v15H5.1V10H0.5v17.2h1.1v-16H4v15h16.9v-15h2.3v16h1.1V10H19.7z M23.1,28.1v16h-2.3V28.6H4v15.5H1.7v-16H0.5v17.2
			h4.6V29.7h14.6v15.5h4.6V28.1H23.1z"/>
	</g>
	<g>
		<path d="M52,17.6v14.1c0,7.6-4,12.3-10.5,12.3c-6.5,0-10.5-4.6-10.5-12.3V17.6H30v14.2c0,8.3,4.4,13.4,11.6,13.4
			s11.6-5.2,11.6-13.5V17.6H52z M48.6,9.4v7.3h1.1v-6.2H52v6.2h1.1V9.4H48.6z M48.6,17.6v14.1c0,5.6-2.6,8.7-7.1,8.7
			c-4.5,0-7-3.2-7-8.7V17.6h-1.1v14.1c0,6.2,3.1,9.8,8.2,9.8c5.1,0,8.2-3.7,8.2-9.9V17.6H48.6z M30,9.4v7.3h1.1v-6.2h2.3v6.2h1.1
			V9.4H30z"/>
	</g>
	<g>
		<path d="M70.2,41.6v-1.1c-3-0.3-5-1.9-6.1-4.9L63.9,35l-4.4,1.9l0.2,0.5c0.8,2.3,3.3,7.6,10.5,7.9v-1.1c-6-0.3-8.4-4.4-9.3-6.6
			l2.3-1C64.2,38.8,66.2,41.3,70.2,41.6z M71.1,27.9v1.3c3.1,1.5,5.5,3,5.5,6.2c0,3.1-2.2,5.1-5.5,5.1v1.1c4,0,6.7-2.5,6.7-6.2
			C77.8,31.4,74.5,29.5,71.1,27.9z M72.4,24.4c-0.5-0.2-0.9-0.4-1.3-0.6V25c0.3,0.1,0.6,0.3,0.8,0.4c4.3,2,8.7,4.1,8.7,9.7
			c0,5.2-3.9,8.9-9.5,9v1.1c6.3-0.1,10.7-4.2,10.7-10.1C81.8,28.9,76.8,26.5,72.4,24.4z M70.2,9.9V8.8c-5.6,0.3-9.5,4-9.5,9.3
			c0,6.2,4.8,8.5,9.1,10.5c0.1,0.1,0.3,0.1,0.4,0.2v-1.3c-4.1-1.9-8.4-4-8.4-9.4C61.8,13.5,65.2,10.2,70.2,9.9z M70.2,13.5v-1.1
			c-2.9,0.3-5.6,2-5.6,5.6c0,3.3,2.5,5,5.6,6.6v-1.3c-2.5-1.3-4.4-2.8-4.4-5.3C65.7,15.5,67.5,13.8,70.2,13.5z M81.1,15.7
			c-0.4-1.1-2.8-6.8-10.1-6.9v1.1c5.7,0.1,8.1,4,8.8,5.6l-2.3,0.9c-0.8-1.5-2.7-4.1-6.5-4.1v1.1c3.4,0.1,5,2.5,5.7,3.9l0.2,0.5
			l4.3-1.8L81.1,15.7z"/>
	</g>
	<g>
		<path d="M108.2,14.1V9.4H90.9v17.2h1.1v-16h15V13H94.9v12.5h8.4v1.1h1.1v-2.2H96V14.1H108.2z M96,39.9V29h8.4v-1.6h-1.1v0.4h-8.4
			v13.2h12.8v2.4H92.1v-16h-1.1v17.2h17.8v-4.7H96z"/>
	</g>
	<g>
		<path d="M128.6,10.5V9.4h-11.3v4.7h9.2v30.5h2.1v-1.1h-0.9V13h-9.2v-2.5H128.6z M129.5,9.4v1.1h10.1V13h-9.2v30.5h-1v1.1h2.1V14.1
			h9.2V9.4H129.5z"/>
	</g>
</g>
</svg>
